<svg version="1.1" id="Calque_1" xmlns:x="ns_extend;" xmlns:i="ns_ai;" xmlns:graph="ns_graphs;" xmlns="http://www.w3.org/2000/svg" xmlns:xlink="http://www.w3.org/1999/xlink" x="0px" y="0px" viewBox="0 0 122.4 120.8" style="enable-background:new 0 0 122.4 120.8;" xml:space="preserve">
 <style type="text/css">
  .st0{fill-rule:evenodd;clip-rule:evenodd;fill:#006A32;}
	.st1{fill-rule:evenodd;clip-rule:evenodd;fill:#93C01F;}
	.st2{fill-rule:evenodd;clip-rule:evenodd;fill:#308A2C;}
	.st3{fill-rule:evenodd;clip-rule:evenodd;fill:#FFFFFF;}
	.st4{fill-rule:evenodd;clip-rule:evenodd;fill:#E20613;}
 </style>
 <metadata>
  <sfw xmlns="ns_sfw;">
   <slices>
   </slices>
   <sliceSourceBounds bottomLeftOrigin="true" height="120.8" width="122.4" x="0.6" y="0.7">
   </sliceSourceBounds>
  </sfw>
 </metadata>
 <desc>
  Created with Sketch.
 </desc>
 <g id="menu" transform="translate(-50.000000, 0.000000)">
  <g id="logo_delhaize" transform="translate(50.000000, 0.000000)">
   <g id="square" transform="translate(0.000000, 17.872340)">
    <g id="Group-49" transform="translate(2.088922, 1.836880)">
     <path id="Fill-7" class="st0" d="M118.8,80.9c-24.7,3.9-50.6,9.9-75.2,18.6h75.2V80.9z">
     </path>
     <g id="Group-11" transform="translate(0.000000, 0.000000)">
      <g id="Clip-10">
      </g>
      <path id="Fill-9" class="st0" d="M118.8,68.3v-86.8H-0.6V84.3C6.1,81.7,66.2,66.7,118.8,68.3">
      </path>
     </g>
     <g id="Group-14" transform="translate(0.000000, 86.231024)">
      <g id="Clip-13">
      </g>
      <path id="Fill-12" class="st1" d="M118.8-14.3V-18C66.2-19.6,6.1-4.6-0.6-1.9v14.1C11.3,6.7,64.2-13.1,118.8-14.3">
      </path>
     </g>
     <g id="Group-17" transform="translate(0.000000, 87.873979)">
      <g id="Clip-16">
      </g>
      <path id="Fill-15" class="st2" d="M-0.6,8.8v2.9h44.1C68.2,3.1,94-2.9,118.7-6.9v-10.8C64.2-16.5,11.3,3.3-0.6,8.8">
      </path>
     </g>
     <polygon id="Fill-18" class="st3" points="30.1,7.6 34,7.2 34,31.6 30.1,31.6 				">
     </polygon>
     <path id="Fill-20" class="st3" d="M40.6,24.1c0.2,3.7,1.4,5.1,3.3,5.1c1.9,0,3.1-1.4,3.3-5.1c0-0.6,0-1.2,0-1.8
					c-0.2-3.5-1.2-4.8-2.8-5.1c-2.1-0.4-3.6,1.1-3.8,5.1c0,0.3,0,0.6,0,0.9C40.5,23.5,40.5,23.8,40.6,24.1 M42.8,14.3
					c5.1-0.5,7.9,2,8.4,7.2c0.7,7.2-2.2,10.6-7.4,10.6c-4.8,0-7.4-2.8-7.4-8.9C36.4,17.5,38.7,14.7,42.8,14.3">
     </path>
     <path id="Fill-22" class="st3" d="M53.7,14.7l3.9-0.4v11.6c0,0.3,0,0.5,0,0.8c0.1,1.8,2,2.9,4.6,1.7c0.2-0.1,0.4-0.2,0.5-0.3
					c0.2-0.1,0.4-0.3,0.6-0.4v-13h3.9v17h-3.8v-1L63,30.9l-0.4,0.2c-0.9,0.5-1.7,0.8-2.5,0.9c-4.1,0.7-6.4-1.4-6.4-5
					C53.7,27,53.7,14.7,53.7,14.7z">
     </path>
     <path id="Fill-24" class="st3" d="M70.3,14.7l3.9-0.4v17.3h-3.9V14.7z M72.2,7.5c1.7,0,2.3,0.5,2.3,2.1c0,1.7-1,2.6-3.4,1.8
					c-0.6-0.2-0.9-0.7-0.9-1.8C70.1,8.1,70.6,7.5,72.2,7.5L72.2,7.5z">
     </path>
     <path id="Fill-26" class="st3" d="M77.2,27.9c0.2,0.1,0.4,0.1,0.6,0.2c0.5,0.1,0.9,0.3,1.4,0.4c1.2,0.3,2.2,0.4,3,0.3
					c1-0.1,1.6-0.3,1.9-0.6c0.8-0.6,0.8-1.6,0.1-2.3c-0.2-0.2-0.5-0.4-1.2-0.7c-0.2-0.1-0.4-0.2-0.5-0.3l-0.7-0.3L81,24.2
					c-3.8-1.6-5.1-3.7-4.3-6.3c0.8-2.9,4.5-4.9,10.8-3l0.6,0.2l0.5,0.2l-0.9,3c-0.2-0.1-0.4-0.1-0.6-0.2c-4.9-1.6-6.7-0.4-6.7,0.9
					c0,0.6,0.3,1.1,1.2,1.6l0.6,0.3l0.4,0.2l1.3,0.6l1.6,0.7c3,1.4,4,3.3,3.2,5.9c-0.9,3.1-4.9,5.2-11.7,3c-0.2-0.1-0.4-0.1-0.6-0.2
					L77.2,27.9z">
     </path>
     <path id="Fill-28" class="st3" d="M15.6,49.2c-2.5-1.6-4.8-0.6-5.5,2c-0.1,0.5-0.2,1-0.3,1.7c-0.1,0.9-0.1,1.8,0.1,2.8
					c0.5,3.3,2.9,4.5,5.7,2.9c0.1-0.1,0.2-0.1,0.3-0.2v-8.9C15.9,49.3,15.7,49.3,15.6,49.2L15.6,49.2z M15.9,38.3l3.9-0.4v24.4H16
					V61l-0.3,0.2l-0.4,0.3c-0.3,0.2-0.5,0.3-0.8,0.5c-3.5,2-7.7-0.2-8.7-5.1c-0.3-1.5-0.3-3-0.2-4.5c0.6-5.3,3.7-7.9,7.4-7.3
					c0.8,0.1,1.7,0.5,2.6,1.1c0.1,0.1,0.3,0.2,0.4,0.3v-8.2H15.9z">
     </path>
     <path id="Fill-30" class="st3" d="M32.6,52.6v-0.5c-0.1-3.2-1.7-4.7-3.8-4.2c-1.5,0.3-2.6,1.6-2.7,4.2v0.5H32.6z M26.4,55.1
					c0,0.2,0,0.4,0.1,0.7c0.6,3.2,3.4,4.8,7.8,3.4l0.4-0.1L35,59l0.7,2.8l-0.3,0.1L35,62c-1,0.3-1.9,0.5-2.9,0.6
					c-6.2,0.6-9.9-2.5-10-8.8c-0.1-5.2,2.4-8.2,6.1-8.8c5-0.7,8,2.3,8.1,8.6c0,0.5,0,1-0.1,1.5H26.4z">
     </path>
     <polygon id="Fill-32" class="st3" points="38.5,38.3 42.4,37.9 42.4,62.3 38.5,62.3 				">
     </polygon>
     <path id="Fill-34" class="st3" d="M45.7,38.3l3.9-0.4v8.6c0.1-0.1,0.2-0.2,0.4-0.3c1-0.7,2-1.1,3-1.2c4.2-0.7,6.4,1.4,6.4,5.4
					v11.9h-3.9v-11c0-0.3,0-0.5,0-0.8c-0.2-2-2-3.2-4.6-2c-0.2,0.1-0.4,0.2-0.6,0.3c-0.2,0.1-0.4,0.3-0.6,0.4v13h-3.9V38.3H45.7z">
     </path>
     <path id="Fill-36" class="st3" d="M70.9,54.1L70.4,54c-2.7-0.3-4.4,0.6-4.8,2c-0.6,1.9,0.5,3.5,2.6,3.6c0.8,0,1.8-0.2,2.7-0.8
					c0.2-0.1,0.3-0.2,0.4-0.3v-4.4L70.9,54.1z M71.3,50.7c0-2.1-1-3-4.1-2.7c-0.6,0.1-1.4,0.2-2.3,0.5l-0.5,0.2l-0.5,0.2l-1-2.9
					l0.7-0.2l0.8-0.2c1.4-0.3,2.4-0.5,3.3-0.6c5.7-0.4,7.5,1.3,7.5,5.3v12h-3.7l-0.1-1.5c-0.1,0.1-0.2,0.2-0.4,0.3
					c-1.3,1-2.4,1.5-3.8,1.6c-3.9,0.3-6.6-2.6-5.9-6.5c0.6-3.4,3.5-5.3,8.5-4.4c0.2,0,0.5,0.1,0.7,0.1l0.4,0.1l0.4,0.1
					C71.3,52.1,71.3,50.7,71.3,50.7z">
     </path>
     <path id="Fill-38" class="st3" d="M78.2,45.3l3.9-0.4v17.3h-3.9V45.3z M80.1,38.1c1.7,0,2.3,0.5,2.3,2.1c0,1.7-1,2.6-3.4,1.8
					c-0.6-0.2-0.9-0.7-0.9-1.8C78,38.7,78.5,38.1,80.1,38.1L80.1,38.1z">
     </path>
     <path id="Fill-40" class="st3" d="M84.2,60.5l7.4-11.3c0.2-0.3,0.5-0.6,0.8-0.9c0.1-0.1,0.3-0.2,0.4-0.3c-0.5,0.2-1,0.3-1.7,0.3
					L84.5,48v-2.7h12.8v1.8L90,58.3c-0.4,0.6-0.8,1-1.3,1.3c0.5-0.3,1.1-0.4,1.8-0.3l6.9,0.3v2.7H84.2V60.5z">
     </path>
     <path id="Fill-42" class="st3" d="M109,52.6v-0.5c-0.1-3.2-1.7-4.7-3.8-4.2c-1.5,0.3-2.6,1.6-2.7,4.2v0.5H109z M102.8,55.1
					c0,0.2,0,0.4,0.1,0.7c0.6,3.2,3.4,4.8,7.8,3.4l0.4-0.1l0.3-0.1l0.7,2.8l-0.4,0.2l-0.4,0.1c-1,0.3-1.9,0.5-2.9,0.6
					c-6.2,0.6-9.9-2.5-10-8.8c-0.1-5.2,2.4-8.2,6.1-8.8c5-0.7,8,2.3,8.1,8.6c0,0.5,0,1-0.1,1.5L102.8,55.1L102.8,55.1z">
     </path>
     <g id="Group-46" transform="translate(43.179530, 0.000000)">
      <g id="Clip-45">
      </g>
      <path id="Fill-44" class="st4" d="M-0.1-12.4C-0.1-3.6,7.1,3.5,16,3.5s16.1-7.1,16.1-15.9c0-2.1-0.4-4.2-1.2-6H1.1
						C0.3-16.6-0.1-14.6-0.1-12.4">
      </path>
     </g>
     <path id="Fill-47" class="st3" d="M51.8-11.6h1.1L52.4-13L51.8-11.6z M50.6-10.1v-0.2c0.1,0,0.2-0.1,0.3-0.1
					c0.1-0.1,0.2-0.2,0.3-0.5l1.1-2.7h0.3l1.1,2.7c0.1,0.2,0.2,0.4,0.3,0.5s0.2,0.1,0.4,0.1v0.3h-1.5v-0.3c0.2,0,0.3,0,0.4-0.1
					c0.1,0,0.1-0.1,0.1-0.2v-0.1v-0.1l-0.3-0.7h-1.3L51.6-11c0,0.1,0,0.1,0,0.1v0.1c0,0.1,0,0.1,0.1,0.2c0.1,0,0.2,0.1,0.3,0.1v0.3
					h-1.4V-10.1z M55.8-10.9c0,0.2,0,0.4,0.1,0.4c0.1,0.1,0.2,0.1,0.4,0.1l0,0v0.3h-1.5v-0.2l0,0c0.2,0,0.4,0,0.4-0.1
					c0.2-0.1,0.2-0.2,0.2-0.5V-13c0-0.1,0-0.2-0.1-0.3c-0.1,0-0.2-0.1-0.5-0.1v-0.2h1.3l1.8,2.7v-1.9c0-0.2,0-0.4-0.1-0.4
					c-0.1-0.1-0.2-0.1-0.4-0.1l0,0v-0.3h1.5v0.2l0,0c-0.2,0-0.4,0-0.4,0.1c-0.1,0.1-0.1,0.2-0.1,0.4v2.2c0,0.1,0,0.2,0,0.3
					s0,0.2,0,0.3H58l-2.2-3.2C55.8-13.3,55.8-10.9,55.8-10.9z M60.3-10.9c0,0.2,0,0.4,0.1,0.4c0.1,0.1,0.2,0.1,0.4,0.1l0,0v0.3h-1.4
					v-0.2l0,0c0.2,0,0.4,0,0.4-0.1c0.1-0.1,0.1-0.2,0.1-0.4V-13c0-0.1,0-0.2-0.1-0.3c-0.1,0-0.2-0.1-0.5-0.1v-0.2h1.3l1.8,2.7v-1.9
					c0-0.2,0-0.4-0.1-0.4c-0.1-0.1-0.2-0.1-0.4-0.1l0,0v-0.3h1.5v0.2l0,0c-0.2,0-0.4,0-0.4,0.1c-0.1,0.1-0.1,0.2-0.1,0.4v2.2
					c0,0.1,0,0.2,0,0.3s0,0.2,0,0.3h-0.4l-2.2-3.2C60.3-13.3,60.3-10.9,60.3-10.9z M65.8-10.2c0.4,0,0.6-0.1,0.8-0.4
					c0.2-0.3,0.3-0.7,0.3-1.2s-0.1-0.9-0.3-1.2c-0.1-0.3-0.4-0.5-0.8-0.5s-0.6,0.1-0.8,0.4c-0.2,0.3-0.3,0.7-0.3,1.2
					c0,0.5,0.1,0.9,0.3,1.2S65.5-10.2,65.8-10.2L65.8-10.2z M64.1-11.8c0-0.3,0-0.5,0.1-0.7s0.2-0.4,0.4-0.6
					c0.2-0.2,0.3-0.3,0.6-0.4c0.2-0.1,0.4-0.1,0.7-0.1c0.2,0,0.5,0,0.7,0.1c0.2,0.1,0.4,0.2,0.6,0.4s0.3,0.4,0.4,0.6
					s0.1,0.5,0.1,0.7c0,0.3,0,0.5-0.1,0.8c-0.2,0.1-0.4,0.3-0.5,0.5c-0.2,0.2-0.3,0.3-0.6,0.4C66.3-10,66.1-10,65.8-10
					c-0.2,0-0.5,0-0.7-0.1s-0.4-0.2-0.6-0.4c-0.2-0.2-0.3-0.4-0.4-0.6C64.1-11.3,64.1-11.6,64.1-11.8L64.1-11.8z M52.1-2.5v-0.3h0.1
					c0.4,0,0.6,0,0.7-0.1C53-3,53.1-3.1,53.1-3.3v-2.9c0-0.2-0.1-0.3-0.2-0.4c-0.1-0.1-0.4-0.1-0.7-0.1h-0.1V-7
					c0.3,0,0.6-0.1,0.8-0.2c0.2-0.1,0.5-0.2,0.7-0.4h0.2v4.2c0,0.2,0.1,0.3,0.2,0.4c0.1,0.1,0.3,0.1,0.7,0.1h0.1v0.4H52.1z M57-4.8
					c-0.2,0.1-0.4,0.3-0.6,0.5c-0.1,0.2-0.2,0.4-0.2,0.7s0.1,0.5,0.3,0.7s0.4,0.3,0.7,0.3s0.5-0.1,0.7-0.2c0.2-0.2,0.3-0.4,0.3-0.6
					c0-0.3-0.1-0.5-0.3-0.7C57.7-4.5,57.4-4.6,57-4.8L57-4.8z M57.5-5.4c0.2-0.1,0.3-0.3,0.4-0.4C58-6,58-6.1,58-6.3
					c0-0.3-0.1-0.5-0.2-0.6c-0.2-0.2-0.4-0.2-0.6-0.2c-0.2,0-0.4,0.1-0.6,0.2c-0.2,0.1-0.2,0.3-0.2,0.5s0.1,0.4,0.3,0.6
					C56.8-5.7,57.1-5.5,57.5-5.4L57.5-5.4z M56.6-4.9c-0.3-0.2-0.6-0.4-0.7-0.6c-0.2-0.2-0.2-0.4-0.2-0.7c0-0.4,0.1-0.7,0.4-0.9
					c0.3-0.2,0.7-0.4,1.1-0.4c0.4,0,0.8,0.1,1,0.3s0.4,0.5,0.4,0.8c0,0.2-0.1,0.4-0.2,0.6c-0.1,0.2-0.4,0.4-0.7,0.5
					c0.4,0.2,0.6,0.4,0.8,0.7c0.2,0.2,0.3,0.5,0.3,0.8c0,0.4-0.2,0.7-0.5,1s-0.7,0.4-1.2,0.4S56.3-2.5,56-2.8
					c-0.3-0.2-0.4-0.5-0.4-0.9c0-0.3,0.1-0.5,0.3-0.7C56-4.6,56.3-4.8,56.6-4.9L56.6-4.9z M62.1-6.8h-1.3c-0.3,0-0.5,0.1-0.6,0.2
					C60.1-6.5,60-6.2,60-5.9h-0.3c0-0.3,0.1-0.5,0.1-0.8s0-0.5,0.1-0.8c0.2,0,0.3,0.1,0.5,0.1s0.3,0,0.5,0h1.9v0.3
					C62.4-6.5,62.1-6,62-5.4c-0.2,0.6-0.3,1.2-0.3,1.8c0,0,0,0.1,0,0.3c0,0.1,0,0.2,0,0.3c0,0.3,0,0.4-0.1,0.6
					c-0.1,0.1-0.2,0.2-0.4,0.2s-0.3-0.1-0.4-0.2c-0.1-0.1-0.1-0.3-0.1-0.5c0-0.4,0.1-0.8,0.3-1.4S61.5-5.8,62.1-6.8L62.1-6.8z
					 M63.5-5.1c0.1-0.5,0.1-1,0.1-1.4s0-0.7,0.1-1c0.2,0.1,0.5,0.1,0.7,0.2c0.2,0,0.4,0.1,0.6,0.1s0.4,0,0.6-0.1
					c0.2,0,0.4-0.1,0.6-0.2l0.1,0.1c-0.2,0.3-0.4,0.4-0.7,0.6c-0.3,0.1-0.6,0.2-0.9,0.2c-0.1,0-0.2,0-0.3,0c-0.1,0-0.2,0-0.3-0.1
					c0,0.2,0,0.4-0.1,0.6c0,0.2,0,0.4,0,0.6c0.1-0.1,0.3-0.1,0.4-0.2c0.1,0,0.3-0.1,0.4-0.1c0.5,0,0.8,0.2,1.2,0.5
					c0.3,0.3,0.5,0.7,0.5,1.2s-0.2,1-0.5,1.3c-0.3,0.3-0.8,0.5-1.3,0.5c-0.4,0-0.7-0.1-1-0.3c-0.3-0.2-0.4-0.4-0.4-0.7
					c0-0.2,0.1-0.3,0.2-0.4c0.1-0.1,0.2-0.2,0.4-0.2c0.1,0,0.2,0,0.3,0.1c0.1,0.1,0.1,0.2,0.1,0.4c0,0.1,0,0.2-0.1,0.3
					S64.1-3,63.9-2.9c0.1,0.1,0.2,0.2,0.3,0.2c0.1,0.1,0.2,0.1,0.4,0.1c0.3,0,0.6-0.1,0.7-0.4c0.2-0.2,0.3-0.6,0.3-1s-0.1-0.7-0.3-1
					c-0.2-0.2-0.4-0.4-0.7-0.4c-0.1,0-0.3,0-0.4,0.1S63.9-5.1,63.7-5L63.5-5.1z">
     </path>
    </g>
    <path id="Fill-50" class="st3" d="M0,102.9h122.4V-17.9H0V102.9z M1.7-16.3h119.1v117.6l0,0H1.7V-16.3z">
    </path>
   </g>
  </g>
 </g>
</svg>