<svg version="1.1" id="Layer_1" xmlns="http://www.w3.org/2000/svg" xmlns:xlink="http://www.w3.org/1999/xlink" x="0px" y="0px" viewBox="0 0 93.9 93.4" style="enable-background:new 0 0 93.9 93.4;" xml:space="preserve">
 <style type="text/css">
  .st0{fill:#FFFFFF;}
	.st1{fill:#F26522;}
 </style>
 <g>
  <path class="st0" d="M47,0C28,0,0,27.8,0,46.7s28,46.7,47,46.7s47-27.8,47-46.7S65.9,0,47,0">
  </path>
  <path class="st1" d="M47,0C28,0,0,27.8,0,46.7s28,46.7,47,46.7s47-27.8,47-46.7S65.9,0,47,0">
  </path>
  <path class="st0" d="M73.8,56.9L57.1,73.5c-5.7,5.6-14.8,5.6-20.4,0L19.9,56.9c-5.7-5.6-5.7-14.7,0-20.3l17.8-17.7l4.7,4.7
		c2.4,2.4,2.4,6.2,0,8.6l-5.2,5.1c-5.2,5.2-5.2,13.6,0,18.8c5.2,5.2,13.7,5.2,18.9,0c5.2-5.2,5.2-13.6,0-18.8L55,35.9
		c-0.4-0.4-1.2-0.4-1.6,0l-4.2,4.2c-0.4,0.4-0.4,1.2,0,1.6c0.4,0.4,1.2,0.4,1.6,0l1.2-1.2l0.5,0.5c3.1,3.1,3.1,8.1,0,11.3
		c-3.1,3.1-8.2,3.1-11.3,0c-3.1-3.1-3.1-8.1,0-11.3l18.6-18.5l14,13.9C79.5,42.2,79.5,51.2,73.8,56.9">
  </path>
 </g>
</svg>