<svg version="1.1" id="Layer_1" xmlns:x="ns_extend;" xmlns:i="ns_ai;" xmlns:graph="ns_graphs;" xmlns="http://www.w3.org/2000/svg" xmlns:xlink="http://www.w3.org/1999/xlink" x="0px" y="0px" viewBox="0 0 397.9 73.9" style="enable-background:new 0 0 397.9 73.9;" xml:space="preserve">
 <style type="text/css">
  .st0{fill:#231F20;}
	.st1{fill:#EB212E;}
 </style>
 <metadata>
  <sfw xmlns="ns_sfw;">
   <slices>
   </slices>
   <sliceSourceBounds bottomLeftOrigin="true" height="73.9" width="397.9" x="1.2" y="-237.2">
   </sliceSourceBounds>
  </sfw>
 </metadata>
 <g>
  <desc>
   Created with Sketch.
  </desc>
  <g id="Symbols">
   <g id="logo_1_">
    <g id="Shape">
     <path class="st0" d="M37.7,49.3l3.8-26.7c0.3-2.2-0.5-4.1-3.8-4.1c-1.1,0-2.2,0.1-3.3,0.5l-4.2,30.4H17.3l4.9-34.5
					c5.3-2,11-2.9,16.7-2.8c12.4,0,16.4,4.6,15.4,11.9l-3.6,25.3L37.7,49.3">
     </path>
     <path class="st1" d="M391.7,3.5H374l-0.7,4.8h14.6C389.8,8.3,391.3,6.4,391.7,3.5">
     </path>
     <path class="st0" d="M14.3,28.8l0.1-0.9l4-27.9H5.6L1.1,30.6v0.1l-0.9,7c-0.9,6.4,2.1,10.7,11.1,11.7L14.3,28.8">
     </path>
     <path class="st1" d="M343.7,12c-1.2,0-2.4,0-3.5,0.1L341.8,0c-9.2,1-13.5,5.3-14.4,11.7l-1.2,8.4l-4.1,29.2H335l4.2-30.4
					c1.1-0.3,2.2-0.5,3.3-0.5c3.3,0,4.1,1.9,3.8,4.1l-3.8,26.7h12.9L359,24C360.1,16.7,356,12.1,343.7,12">
     </path>
     <path class="st1" d="M319,44.5L319,44.5l0.3-2.2c-3.5,0.8-7.1,1.2-10.7,1.2h-1c-3.3,0-4.1-1.9-3.8-4.2l1.1-7.9l0.3-2.3l1.2-7.9
					c0.1-1.2,0.6-2.4,1.6-3.2c0.9-0.8,2.1-1.2,3.4-1.1h1c3.5,0,7,0.4,10.3,1.1l0.3-2.3l0,0c0.3-1.9,0.4-3.4-2.1-3.9
					c-2.9-0.5-5.9-0.7-8.9-0.6c-12.3,0-17.7,4.6-18.7,11.9l0,0l0,0L291.2,37l0,0c-1,7.3,3.1,11.9,15.4,11.9c3.2,0,6.4-0.3,9.6-0.8
					c1.4-0.3,2.3-1,2.7-3.9">
     </path>
     <path class="st1" d="M288.2,25.2l0.2-1.3l0,0h0.1c1-7.3-3.1-11.9-15.4-11.9c-5.7-0.1-11.3,0.8-16.7,2.8v0.1l0,0l-4.9,34.5h12.9
					l1.7-12.3h3.3l7.2,12.2h12.9L281.1,35c4-1.7,6.8-5.5,7.3-9.8H288.2z M275.9,22.4l-0.2,1.4l0,0l-0.6,2.7
					c-0.1,1.2-0.7,2.3-1.6,3.1c-0.9,0.8-2.1,1.1-3.4,1h-3.2l0.2-1.3l0,0l1.5-10.6c1.1-0.3,2.2-0.5,3.3-0.5c3.3,0,4.1,1.9,3.8,4.2
					L275.9,22.4z">
     </path>
     <path class="st1" d="M235.4,12.1L235.4,12.1h-11c-1.9,0-3.5,1.9-3.9,4.8h13.2c3.3,0,4.1,2,3.8,4.2l-0.6,4.1h-4.3l0,0
					c-11.6,0.2-16.8,4.7-17.9,11.8l-0.2,1.3h0.1h-0.1c-1,7.3,3.1,11.9,15.4,11.9c5.7,0.1,11.3-0.8,16.7-2.8l2-14l0,0l1.2-9.4
					c1-7.1-2.9-11.8-14.5-12L235.4,12.1z M235.8,32.7l-1.5,10.7c-1.1,0.3-2.2,0.5-3.3,0.5c-3.3,0-4.1-1.9-3.8-4.1l0.2-1.4l0,0
					l0.4-2.7c0.1-1.2,0.7-2.3,1.6-3.1c0.9-0.8,2.1-1.1,3.3-1h3.2L235.8,32.7L235.8,32.7z">
     </path>
     <path class="st1" d="M382.4,11.9c-5.7-0.1-11.3,0.8-16.7,2.8l-2,14l0,0l-1.1,8.4c-1,7.1,2.9,11.7,14.5,11.9h14.1l0.3-1.7
					c0.3-1.7-0.4-3.1-2.4-3.1h-10.4c-3.3,0-4.1-1.9-3.8-4.1l0.4-3.1h4l0,0c11.8-0.2,17.1-4.7,18.1-11.8l0.2-1.3h-0.1h0.1
					c1-7.3-3.1-11.9-15.4-11.9L382.4,11.9z M385.1,22.6l-0.2,1.4l0,0l-0.4,2.7c-0.1,1.2-0.7,2.3-1.6,3.1c-0.9,0.8-2.1,1.1-3.3,1
					h-3.2l0.2-1.3l0,0l1.5-10.6c1.1-0.3,2.2-0.5,3.3-0.5c3.2-0.2,4.1,1.8,3.7,4L385.1,22.6z">
     </path>
     <path class="st0" d="M101.7,11.9C96,11.8,90.4,12.7,85,14.7l-2,14l0,0l-1.1,8.4c-1,7.1,2.9,11.7,14.5,11.9h14.1l0.3-1.7l0,0
					c0.3-1.7-0.4-3.1-2.4-3.1H98.1c-3.3,0-4.1-1.9-3.8-4.1l0.4-3.1h4l0,0c11.8-0.2,17.1-4.7,18.1-11.8l0.2-1.3h-0.1h0.1
					c1-7.3-3.1-11.9-15.4-11.9L101.7,11.9z M104.4,22.6l-0.2,1.4l0,0l-0.4,2.6c-0.1,1.2-0.7,2.3-1.6,3.1c-0.9,0.8-2.1,1.1-3.3,1
					h-3.2l0.2-1.3l0,0l1.5-10.6c1.1-0.3,2.2-0.5,3.3-0.5c3.2,0,4.1,1.9,3.7,4.1L104.4,22.6z">
     </path>
     <path class="st0" d="M78.2,47.4c0.3-1.7-0.4-2.9-2.4-2.9h-1.5c-3.3,0-4.1-1.9-3.8-4.1l2.7-19.5v-0.3l0.2-1.3h3.5
					c0.1,0,0.2,0,0.3,0c1.9,0,3.5-1.9,3.9-4.8h-7l2-14.4c-9.2,1-13.5,5.3-14.4,11.7l-1.1,7.2l0,0l-0.1,0.7l-0.1,0.5l0,0l-2.3,17.3
					c-1,7.1,2.8,11.7,14.5,11.9H78L78.2,47.4L78.2,47.4">
     </path>
     <path class="st0" d="M147.2,35c4-1.7,6.8-5.5,7.3-9.8l0.2-1.3h-0.1h0.1l0,0c1-7.3-3.1-11.9-15.4-11.9
					c-5.7-0.1-11.4,0.8-16.7,2.8v0.1l0,0l-4.8,34.5h12.9l1.7-12.3h3.3L160,70.1c1.6,2.2,3.6,3.8,6.2,3.8h3.5L147.2,35L147.2,35z
					 M141.9,22.5l-0.2,1.4l0,0l-0.4,2.7c-0.1,1.2-0.7,2.3-1.6,3.1c-0.9,0.8-2.1,1.1-3.3,1h-3.2l0.2-1.3l0,0l1.5-10.6
					c1.1-0.3,2.2-0.5,3.3-0.5C141.5,18.3,142.3,20.2,141.9,22.5L141.9,22.5z">
     </path>
     <path class="st1" d="M197.4,12c-3.9,0-7.7,0.4-11.5,1.2c-2.9-0.9-5.9-1.3-8.9-1.2c-5.7-0.1-11.4,0.8-16.7,2.8l-3.6,25.4l5.2,9.1
					h6.4l4.2-30.4c1.1-0.3,2.2-0.5,3.3-0.5c2.8,0,3.8,1.4,3.8,3.2l-3.9,27.7h13l3.6-25.3c0.1-0.5,0.1-1,0.1-1.5l0.5-3.6
					c1.1-0.3,2.2-0.5,3.3-0.5c3.3,0,4.1,1.9,3.8,4.1l-3.6,26.7h12.9l3.6-25.3C213.9,16.7,209.8,12.1,197.4,12">
     </path>
     <polygon class="st0" points="164.9,54.4 176.1,73.9 388,73.9 390.5,54.4 				">
     </polygon>
    </g>
   </g>
  </g>
 </g>
</svg>