<svg version="1.1" id="Layer_1" xmlns="http://www.w3.org/2000/svg" xmlns:xlink="http://www.w3.org/1999/xlink" x="0px" y="0px" viewBox="0 0 82 72" style="enable-background:new 0 0 82 72;" xml:space="preserve">
 <style type="text/css">
  .st0{fill:#EF3E33;}
 </style>
 <g>
  <g>
   <path class="st0" d="M37.96,58.27h-3.03v1.12c-0.75-0.97-1.89-1.51-3-1.51c-3.09,0-4.91,3.14-4.91,6.31c0,3.24,1.8,6.43,4.96,6.43
			c1.12,0,2.26-0.54,2.92-1.49h0.04v1.1h3.03V58.27z M32.68,67.6c-1.58,0-2.54-1.75-2.54-3.36c0-1.61,0.96-3.34,2.54-3.34
			c1.58,0,2.57,1.73,2.57,3.34C35.25,65.85,34.26,67.6,32.68,67.6z">
   </path>
   <path class="st0" d="M44.39,58.27h-3.07v11.96h3.07v-5.38c0-1.85,0.22-3.95,2.35-3.95c0.46,0,0.9,0.15,1.27,0.44l0.37-3.17
			c-0.39-0.17-0.83-0.29-1.27-0.29c-1.14,0-2.06,0.58-2.67,1.63h-0.04V58.27z">
   </path>
   <rect x="50.84" y="55.13" class="st0" width="3.08" height="15.1">
   </rect>
   <polygon class="st0" points="72.37,61.16 74.8,61.17 74.8,58.29 72.37,58.29 72.37,55.15 69.31,55.15 69.3,70.25 72.37,70.25 		
			">
   </polygon>
   <path class="st0" d="M23.13,60.66c-0.18,0-0.35,0.01-0.52,0.04c-0.58,0.02-1.07,0.24-1.47,0.6c-0.9,0.64-1.49,1.7-1.49,2.9
			c0,1.2,0.58,2.25,1.48,2.89c0.37,0.31,0.81,0.51,1.32,0.58c0.22,0.04,0.45,0.07,0.68,0.07c0.67,0,1.29-0.19,1.82-0.52v2.62
			c-0.83,0.51-1.71,0.73-2.65,0.73c-3.18,0-5.44-2.9-5.44-6.33c0-3.56,2.35-6.41,5.59-6.41c0.85,0,1.75,0.24,2.5,0.76v2.6
			C24.42,60.85,23.8,60.66,23.13,60.66z">
   </path>
   <path class="st0" d="M14.7,59.06c-0.88-0.85-2.32-1.24-3.46-1.24c-2.02,0-3.42,1.63-3.42,3.87c0,1.92,1.07,2.63,2.15,3.14
			c1.07,0.51,2.15,0.76,2.15,1.8c0,0.78-0.55,1.29-1.23,1.29c-0.9,0-1.69-0.66-2.28-1.39l-1.4,2.02c0.94,1.27,2.35,2,3.79,2
			c2.26,0,4.19-1.58,4.19-4.24c0-2.07-1.1-2.9-2.21-3.44c-1.1-0.54-2.22-0.78-2.22-1.66c0-0.58,0.5-1.02,1.01-1.02
			c0.61,0,1.18,0.37,1.62,0.83L14.7,59.06z">
   </path>
   <path class="st0" d="M66.8,64.79h-7.08c0,1.51,0.53,3.22,2.13,3.22c0.95,0,1.56-0.6,1.98-1.46l2.79,0.68
			c-0.81,2.17-2.62,3.38-4.77,3.38c-3.33,0-5.37-2.63-5.37-6.26c0-3.63,1.73-6.48,5.22-6.48c3.53,0,5.11,2.9,5.11,6.5V64.79z
			 M59.8,62.67h4.1c-0.15-1.22-0.85-2.41-2.04-2.41C60.64,60.26,59.96,61.43,59.8,62.67z">
   </path>
  </g>
  <path class="st0" d="M45.65,50.18c-1.21,0.7-3.02,1.09-4.65,1.09c-1.63,0-3.44-0.39-4.65-1.09L3.65,31.3
		c-2.54-1.46-3.4-4.71-1.94-7.24c1.46-2.54,4.71-3.4,7.24-1.94l17.56,10.14L16.38,14.7c-1.46-2.54-0.59-5.78,1.94-7.24
		c2.54-1.46,5.78-0.6,7.24,1.94L35.7,26.96V6.68c0-2.93,2.37-5.3,5.3-5.3c2.93,0,5.3,2.37,5.3,5.3v20.28L56.44,9.4
		c1.46-2.54,4.71-3.4,7.24-1.94c2.54,1.46,3.4,4.71,1.94,7.24L55.48,32.26l17.56-10.14c2.54-1.46,5.78-0.6,7.24,1.94
		c1.46,2.54,0.6,5.78-1.94,7.24L45.65,50.18z">
  </path>
 </g>
</svg>