<svg version="1.1" id="Layer_1" xmlns:x="ns_extend;" xmlns:i="ns_ai;" xmlns:graph="ns_graphs;" xmlns="http://www.w3.org/2000/svg" xmlns:xlink="http://www.w3.org/1999/xlink" x="0px" y="0px" viewBox="0 0 75 75" style="enable-background:new 0 0 75 75;" xml:space="preserve">
 <style type="text/css">
  .st0{fill:#E60000;}
	.st1{fill:#FFFFFF;}
 </style>
 <metadata>
  <sfw xmlns="ns_sfw;">
   <slices>
   </slices>
   <sliceSourceBounds bottomLeftOrigin="true" height="75" width="75" x="-48.1" y="-213.9">
   </sliceSourceBounds>
  </sfw>
 </metadata>
 <g>
  <g>
   <path class="st0" d="M75,37.5C75,58.2,58.2,75,37.5,75S0,58.2,0,37.5S16.8,0,37.5,0S75,16.8,75,37.5">
   </path>
   <path class="st1" d="M37.8,58.4c-10.3,0-21-8.8-21.1-22.9c0-9.3,5-18.3,11.4-23.7c6.3-5.2,14.9-8.5,22.7-8.6c1,0,2.1,0.1,2.7,0.3
			c-6.8,1.4-12.3,7.8-12.2,15c0,0.2,0,0.5,0,0.6C52.8,22,58,28.9,58,38.4C58,47.9,50.5,58.4,37.8,58.4">
   </path>
  </g>
  <g>
   <path class="st0" d="M53.6,3.6c-6.8,1.4-12.2,7.8-12.2,15c0,0.2,0,0.5,0,0.6C52.8,22,58,28.9,58,38.4c0,9.5-7.5,20-20.2,20
			c-10.3,0-21-8.8-21.1-22.9c0-9.3,5-18.3,11.4-23.7c6.3-5.2,14.9-8.5,22.7-8.6C51.9,3.3,52.9,3.4,53.6,3.6C48.7,1.3,43.2,0,37.5,0
			C16.8,0,0,16.8,0,37.5C0,58.2,16.8,75,37.5,75S75,58.2,75,37.5C75,22.5,66.2,9.6,53.6,3.6z">
   </path>
   <path class="st1" d="M53.6,3.6C53.6,3.6,53.5,3.6,53.6,3.6C53.5,3.6,53.6,3.6,53.6,3.6C53.6,3.6,53.6,3.6,53.6,3.6z">
   </path>
   <path class="st1" d="M28.2,11.9c-6.4,5.3-11.5,14.3-11.4,23.7c0,14.1,10.8,22.9,21.1,22.9c12.7,0,20.2-10.5,20.2-20
			c0-9.5-5.2-16.4-16.6-19.2c0-0.1,0-0.4,0-0.6c0-7.2,5.4-13.6,12.2-15c0,0,0,0,0,0c-0.6-0.2-1.7-0.3-2.7-0.3
			C43.1,3.3,34.5,6.7,28.2,11.9z">
   </path>
  </g>
 </g>
</svg>